<svg width="174" height="44" viewBox="0 0 174 44" fill="none" xmlns="http://www.w3.org/2000/svg"><path d="M0 42.862l.755-.445c.16.43.465.697 1.031.697.523 0 .712-.222.712-.474 0-.341-.305-.474-.958-.667C.842 41.766.189 41.47.189 40.61s.697-1.363 1.467-1.363c.726 0 1.292.385 1.597 1.022l-.74.43c-.16-.34-.407-.578-.857-.578-.363 0-.581.193-.581.46 0 .281.174.43.842.636.712.223 1.453.475 1.453 1.393 0 .845-.669 1.378-1.613 1.378-.915 0-1.51-.444-1.757-1.126zm9.368-1.245c0-.873-.624-1.496-1.438-1.496-.813 0-1.438.622-1.438 1.496 0 .875.625 1.482 1.438 1.482.814 0 1.438-.607 1.438-1.481zm-3.747 0c0-1.333 1.031-2.37 2.31-2.37 1.277 0 2.323 1.037 2.323 2.37 0 1.334-1.031 2.37-2.324 2.37-1.292 0-2.31-1.036-2.31-2.37zm8.046-1.422v1.082h1.729v.86h-1.729v1.762h-.886v-4.548h2.658v.844h-1.772zm7.277 0h-1.206V43.9h-.871v-3.704H17.66v-.844h3.283v.844zm2.091-.845h.915l.857 3.364.93-3.363h.755l.93 3.363.857-3.363h.93l-1.25 4.548h-1.002l-.843-3.007-.827 3.007h-1.002l-1.25-4.548zm10.661 2.89l-.61-1.852-.61 1.852h1.22zm.276.83H32.2l-.261.814h-.944l1.54-4.533h1.089l1.568 4.548h-.958l-.262-.83zm4.444-1.541h.901c.334 0 .61-.297.61-.682 0-.37-.276-.666-.61-.666h-.9v1.348zm.669.785h-.669v1.585h-.885v-4.548h1.786c.828 0 1.481.681 1.481 1.511 0 .578-.348 1.081-.856 1.333l.987 1.719h-.944l-.9-1.6zm7.044.726v.859h-2.76v-4.548h2.716v.844h-1.844v.978h1.684v.844h-1.684v1.023h1.888z" fill="#49A2FB"/><path d="M54.871 43.04v.859h-2.76v-4.548h2.731v.844h-1.844v.978h1.684v.845h-1.684v1.022h1.873zm5.999-3.69v4.55h-.668l-1.917-2.785V43.9h-.872v-4.548h.668l1.903 2.77v-2.77h.886zm7.117 2.445c0 1.319-.915 2.178-2.194 2.178-1.394 0-2.382-1.067-2.382-2.355 0-1.319 1.003-2.37 2.339-2.37.842 0 1.569.429 1.946 1.051l-.755.444c-.203-.37-.654-.637-1.191-.637-.843 0-1.453.637-1.453 1.497 0 .844.596 1.481 1.526 1.481.697 0 1.147-.34 1.307-.859h-1.351v-.8h2.237v.37h-.03zm2.527 2.104h.886v-4.548h-.886v4.548zm7.088-4.549v4.55h-.668l-1.918-2.785V43.9h-.886v-4.548h.669l1.917 2.77v-2.77h.886zm5.49 3.69v.859h-2.76v-4.548h2.73v.844h-1.844v.978h1.685v.845h-1.685v1.022h1.874zm5.287 0v.859h-2.76v-4.548h2.73v.844h-1.844v.978h1.685v.845h-1.685v1.022h1.874zm3.413-1.511h.9c.334 0 .61-.297.61-.682 0-.37-.276-.666-.61-.666h-.9v1.348zm.668.785h-.668v1.585h-.886v-4.548h1.786c.828 0 1.482.681 1.482 1.511 0 .578-.349 1.081-.857 1.333l.988 1.719h-.945l-.9-1.6zm4.27 1.585h.886v-4.548h-.886v4.548zm7.088-4.549v4.55h-.668l-1.917-2.785V43.9h-.872v-4.548h.668l1.903 2.77v-2.77h.886zm7.117 2.445c0 1.319-.915 2.178-2.193 2.178-1.395 0-2.382-1.067-2.382-2.355 0-1.319 1.002-2.37 2.338-2.37.842 0 1.569.429 1.946 1.051l-.755.444c-.203-.37-.654-.637-1.191-.637-.842 0-1.452.637-1.452 1.497 0 .844.595 1.481 1.525 1.481.697 0 1.147-.34 1.307-.859h-1.351v-.8h2.237v.37h-.029z" fill="#0067DC"/><path d="M119.467 43.04v.859h-2.571v-4.548h.872v3.689h1.699zm4.866-.8l-.61-1.867-.61 1.852h1.22v.015zm.276.83h-1.772l-.262.814h-.958l1.554-4.533h1.089l1.569 4.548h-.959l-.261-.83zm5.969-.549a.509.509 0 00-.523-.533h-1.016v1.067h1.016c.305 0 .523-.223.523-.534zm-1.525-2.34v1.007h.886c.276 0 .48-.208.48-.504 0-.296-.204-.503-.48-.503h-.886zm2.397 2.4c0 .785-.625 1.318-1.395 1.318h-1.888v-4.548h1.758c.755 0 1.35.518 1.35 1.274 0 .385-.159.696-.421.904.378.207.596.577.596 1.051zm6.042-.964c0-.873-.625-1.496-1.438-1.496s-1.438.622-1.438 1.496c0 .875.625 1.482 1.438 1.482.799.015 1.438-.607 1.438-1.481zm-3.762 0c0-1.333 1.031-2.37 2.309-2.37 1.279 0 2.324 1.037 2.324 2.37 0 1.334-1.031 2.37-2.324 2.37-1.292 0-2.309-1.036-2.309-2.37zm8.046-.088h.901c.334 0 .61-.297.61-.682 0-.37-.276-.666-.61-.666h-.901v1.348zm.669.785h-.669v1.585h-.886v-4.548h1.787c.828 0 1.481.681 1.481 1.511 0 .578-.348 1.081-.857 1.333l.988 1.719h-.944l-.9-1.6zm6.608-.074l-.61-1.852-.61 1.852h1.22zm.262.83h-1.772l-.262.814h-.944l1.554-4.548h1.089l1.569 4.548h-.959l-.275-.815zm6.201-2.875h-1.205V43.9h-.886v-3.704h-1.191v-.844h3.282v.844zm5.694 1.422c0-.873-.625-1.496-1.438-1.496s-1.438.622-1.438 1.496c0 .875.625 1.482 1.438 1.482s1.438-.607 1.438-1.481zm-3.747 0c0-1.333 1.031-2.37 2.309-2.37 1.293 0 2.324 1.037 2.324 2.37 0 1.334-1.031 2.37-2.324 2.37s-2.309-1.036-2.309-2.37zm8.031-.088h.901c.334 0 .61-.297.61-.682 0-.37-.276-.666-.61-.666h-.901v1.348zm.669.785h-.669v1.585h-.885v-4.548h1.786c.828 0 1.481.681 1.481 1.511 0 .578-.348 1.081-.856 1.333l.987 1.719h-.944l-.9-1.6zm6.158-.193V43.9h-.872v-1.778l-1.525-2.77h.988l.973 1.896.959-1.896h1.002l-1.525 2.77z" fill="#0044C6"/><path d="M154.973 0c-3.965 0-7.334 2.563-8.627 6.163l-6.914 19.348H120.29a.92.92 0 01-.916-.933V.015h-9.179V25.51c0 5.17 4.111 9.363 9.179 9.363l26.464.03 3.369-9.393h11.532l2.252 6.282c.682 1.896 2.425 3.096 4.299 3.096h6.565L163.644 6.28C162.395 2.622 158.997 0 154.973 0zm-.406 9.363l3.268 9.126h-6.522l3.254-9.126z" fill="url(#paint0_linear)"/><path d="M98.27 0v22.104a.92.92 0 01-.914.933.924.924 0 01-.697-.326L86.449 4.667C84.85 1.897 81.901.03 78.531.03c-5.069 0-9.179 4.192-9.179 9.363V25.54h-24.11a.92.92 0 01-.915-.934v-3.63h22.12v-7.021h-22.12V10.37c0-.563.406-.977.915-.977h21.205V.03h-31.3v25.496c0 5.17 4.11 9.363 9.18 9.363h34.205v-22.03a.92.92 0 01.914-.933c.334 0 .625.178.785.444.029.06.043.09.058.104l10.036 17.719c1.598 2.8 4.56 4.681 7.96 4.681 5.068 0 9.179-4.193 9.179-9.363V0H98.27z" fill="url(#paint1_linear)"/><path d="M9.223.03C4.153.03.043 4.222.043 9.392c0 3.867 2.295 7.186 5.578 8.608l13.333 5.778a.94.94 0 01.48.815.94.94 0 01-.843.933H.044v9.363h23.398v-.015c4.88-.208 8.787-4.311 8.787-9.348 0-4.09-2.57-7.556-6.143-8.83L13.39 11.2a.94.94 0 01.247-1.807h24.256c1.975 0 3.66-1.275 4.313-3.067L44.46.03H9.223z" fill="url(#paint2_linear)"/><defs><linearGradient id="paint0_linear" x1="110.195" y1="34.904" x2="173.855" y2="34.904" gradientUnits="userSpaceOnUse"><stop stop-color="#0044C6"/><stop offset="1" stop-color="#005CF1"/></linearGradient><linearGradient id="paint1_linear" x1="35.149" y1="34.889" x2="107.465" y2="34.889" gradientUnits="userSpaceOnUse"><stop stop-color="#0067DC"/><stop offset="1" stop-color="#1D7DE8"/></linearGradient><linearGradient id="paint2_linear" x1=".044" y1="34.889" x2="44.459" y2="34.889" gradientUnits="userSpaceOnUse"><stop stop-color="#49A2FB"/><stop offset="1" stop-color="#5BBAFB"/></linearGradient></defs></svg>